# Blender v2.82 (sub 7) OBJ File: 'plane_walls.blend'
# www.blender.org
o Cube.004_Cube.007
v -88.262054 -3.171075 105.624573
v -88.210144 6.155316 105.605026
v -87.232834 -3.176808 105.622597
v -87.180923 6.149583 105.603050
v -88.649078 -3.588301 -94.449234
v -88.597168 5.738090 -94.468781
v -87.619858 -3.594035 -94.451210
v -87.567947 5.732357 -94.470757
vt 0.625000 0.000000
vt 0.375000 0.000000
vt 0.375000 0.250000
vt 0.625000 0.250000
vt 0.375000 0.500000
vt 0.625000 0.500000
vt 0.375000 0.750000
vt 0.625000 0.750000
vt 0.375000 1.000000
vt 0.125000 0.500000
vt 0.125000 0.750000
vt 0.875000 0.500000
vt 0.625000 1.000000
vt 0.875000 0.750000
vn 0.0019 0.0021 1.0000
vn 1.0000 -0.0056 -0.0019
vn -0.0019 -0.0021 -1.0000
vn -1.0000 0.0056 0.0019
vn -0.0056 -1.0000 0.0021
vn 0.0056 1.0000 -0.0021
s off
f 2/1/1 1/2/1 3/3/1
f 4/4/2 3/3/2 7/5/2
f 8/6/3 7/5/3 5/7/3
f 6/8/4 5/7/4 1/9/4
f 7/5/5 3/10/5 1/11/5
f 4/12/6 8/6/6 6/8/6
f 2/1/1 3/3/1 4/4/1
f 4/4/2 7/5/2 8/6/2
f 8/6/3 5/7/3 6/8/3
f 6/8/4 1/9/4 2/13/4
f 7/5/5 1/11/5 5/7/5
f 4/12/6 6/8/6 2/14/6
o Cube_Cube.001
v 95.317657 -12.115165 102.909691
v 95.479889 17.028164 102.848610
v 96.347008 -12.120899 102.907707
v 96.509239 17.022430 102.846626
v 94.930634 -12.532399 -97.167931
v 95.092865 16.610929 -97.229012
v 95.959984 -12.538134 -97.169914
v 96.122215 16.605196 -97.230995
vt 0.625000 0.000000
vt 0.375000 0.000000
vt 0.375000 0.250000
vt 0.625000 0.250000
vt 0.375000 0.500000
vt 0.625000 0.500000
vt 0.375000 0.750000
vt 0.625000 0.750000
vt 0.375000 1.000000
vt 0.125000 0.500000
vt 0.125000 0.750000
vt 0.875000 0.500000
vt 0.625000 1.000000
vt 0.875000 0.750000
vn 0.0019 0.0021 1.0000
vn 1.0000 -0.0056 -0.0019
vn -0.0019 -0.0021 -1.0000
vn -1.0000 0.0056 0.0019
vn -0.0056 -1.0000 0.0021
vn 0.0056 1.0000 -0.0021
vn 0.0020 0.0021 1.0000
s off
f 10/15/7 9/16/7 11/17/7
f 12/18/8 11/17/8 15/19/8
f 16/20/9 15/19/9 13/21/9
f 14/22/10 13/21/10 9/23/10
f 15/19/11 11/24/11 9/25/11
f 12/26/12 16/20/12 14/22/12
f 10/15/13 11/17/13 12/18/13
f 12/18/8 15/19/8 16/20/8
f 16/20/9 13/21/9 14/22/9
f 14/22/10 9/23/10 10/27/10
f 15/19/11 9/25/11 13/21/11
f 12/26/12 14/22/12 10/28/12
o Cube.002_Cube.004
v 97.496628 -15.975438 95.941986
v 97.496628 16.739809 95.941986
v 97.496628 -15.975438 91.926392
v 97.496628 16.739809 91.926392
v -94.698807 -15.975438 95.941986
v -94.698807 16.739809 95.941986
v -94.698807 -15.975438 91.926392
v -94.698807 16.739809 91.926392
vt 0.625000 0.000000
vt 0.375000 0.000000
vt 0.375000 0.250000
vt 0.625000 0.250000
vt 0.375000 0.500000
vt 0.625000 0.500000
vt 0.375000 0.750000
vt 0.625000 0.750000
vt 0.375000 1.000000
vt 0.125000 0.500000
vt 0.125000 0.750000
vt 0.875000 0.500000
vt 0.625000 1.000000
vt 0.875000 0.750000
vn 1.0000 0.0000 0.0000
vn 0.0000 0.0000 -1.0000
vn -1.0000 0.0000 0.0000
vn 0.0000 0.0000 1.0000
vn 0.0000 -1.0000 0.0000
vn 0.0000 1.0000 0.0000
s off
f 18/29/14 17/30/14 19/31/14
f 20/32/15 19/31/15 23/33/15
f 24/34/16 23/33/16 21/35/16
f 22/36/17 21/35/17 17/37/17
f 23/33/18 19/38/18 17/39/18
f 20/40/19 24/34/19 22/36/19
f 18/29/14 19/31/14 20/32/14
f 20/32/15 23/33/15 24/34/15
f 24/34/16 21/35/16 22/36/16
f 22/36/17 17/37/17 18/41/17
f 23/33/18 17/39/18 21/35/18
f 20/40/19 22/36/19 18/42/19
o Cube.001_Cube.005
v 95.239868 -15.498803 -89.961594
v 95.239868 13.645509 -89.961594
v 95.239868 -15.498803 -91.961594
v 95.239868 13.645509 -91.961594
v -92.442032 -15.498803 -89.961594
v -92.442032 13.645509 -89.961594
v -92.442032 -15.498803 -91.961594
v -92.442032 13.645509 -91.961594
vt 0.625000 0.000000
vt 0.375000 0.000000
vt 0.375000 0.250000
vt 0.625000 0.250000
vt 0.375000 0.500000
vt 0.625000 0.500000
vt 0.375000 0.750000
vt 0.625000 0.750000
vt 0.375000 1.000000
vt 0.125000 0.500000
vt 0.125000 0.750000
vt 0.875000 0.500000
vt 0.625000 1.000000
vt 0.875000 0.750000
vn 1.0000 0.0000 0.0000
vn 0.0000 0.0000 -1.0000
vn -1.0000 0.0000 0.0000
vn 0.0000 0.0000 1.0000
vn 0.0000 -1.0000 0.0000
vn 0.0000 1.0000 0.0000
s off
f 26/43/20 25/44/20 27/45/20
f 28/46/21 27/45/21 31/47/21
f 32/48/22 31/47/22 29/49/22
f 30/50/23 29/49/23 25/51/23
f 31/47/24 27/52/24 25/53/24
f 28/54/25 32/48/25 30/50/25
f 26/43/20 27/45/20 28/46/20
f 28/46/21 31/47/21 32/48/21
f 32/48/22 29/49/22 30/50/22
f 30/50/23 25/51/23 26/55/23
f 31/47/24 25/53/24 29/49/24
f 28/54/25 30/50/25 26/56/25
o Cube.003_Cube.006
v -92.924995 -18.371964 101.987297
v -92.762764 10.771366 101.926216
v -91.895645 -18.377697 101.985313
v -91.733414 10.765633 101.924232
v -93.312019 -18.789198 -98.090324
v -93.149788 10.354132 -98.151405
v -92.282669 -18.794931 -98.092308
v -92.120438 10.348398 -98.153389
vt 0.625000 0.000000
vt 0.375000 0.000000
vt 0.375000 0.250000
vt 0.625000 0.250000
vt 0.375000 0.500000
vt 0.625000 0.500000
vt 0.375000 0.750000
vt 0.625000 0.750000
vt 0.375000 1.000000
vt 0.125000 0.500000
vt 0.125000 0.750000
vt 0.875000 0.500000
vt 0.625000 1.000000
vt 0.875000 0.750000
vn 0.0019 0.0021 1.0000
vn 1.0000 -0.0056 -0.0019
vn -0.0019 -0.0021 -1.0000
vn -1.0000 0.0056 0.0019
vn -0.0056 -1.0000 0.0021
vn 0.0056 1.0000 -0.0021
s off
f 34/57/26 33/58/26 35/59/26
f 36/60/27 35/59/27 39/61/27
f 40/62/28 39/61/28 37/63/28
f 38/64/29 37/63/29 33/65/29
f 39/61/30 35/66/30 33/67/30
f 36/68/31 40/62/31 38/64/31
f 34/57/26 35/59/26 36/60/26
f 36/60/27 39/61/27 40/62/27
f 40/62/28 37/63/28 38/64/28
f 38/64/29 33/65/29 34/69/29
f 39/61/30 33/67/30 37/63/30
f 36/68/31 38/64/31 34/70/31
