# Blender v2.82 (sub 7) OBJ File: 'env01.blend'
# www.blender.org
o Plane
v -3.000000 0.000000 3.000000
v 3.000000 0.000000 3.000000
v -3.000000 0.000000 -3.000000
v 3.000000 0.000000 -3.000000
v -0.369657 0.000000 -0.369657
v -0.369657 0.000000 0.369657
v 0.369657 0.000000 0.369657
v 0.369657 0.000000 -0.369657
v -2.182941 0.274235 -2.457176
v -2.457176 0.279069 2.178107
v 2.457176 0.316759 2.140417
v 2.457176 0.316759 -2.140417
v -1.902375 0.000000 -1.902375
v -1.902375 0.000000 1.902375
v 1.902375 0.000000 1.902375
v 1.902375 0.000000 -1.902375
v -0.949473 0.000000 -1.228860
v -0.922875 0.000000 1.217843
v 0.922875 0.000000 1.217843
v 0.949473 0.000000 -1.228860
v -0.801872 0.000000 -1.081259
v -0.797308 0.000000 1.092276
v 0.797308 0.000000 1.092276
v 0.801872 0.000000 -1.081259
v -0.883702 0.000000 -0.883702
v -0.883702 0.000000 0.883702
v 0.883702 0.000000 0.883702
v 0.883702 0.000000 -0.883702
v 0.168822 0.000000 0.168822
v -0.168822 0.000000 -0.168822
v -0.168822 0.000000 0.168822
v 0.168822 0.000000 -0.168822
v -1.426417 0.000000 1.426417
v 1.426417 0.000000 1.426417
v -0.883702 0.000000 0.883702
v 0.883702 0.000000 0.883702
v 1.426417 0.000000 -1.426417
v -1.426417 0.000000 -1.426417
v 0.883702 0.000000 -0.883702
v -0.883702 0.000000 -0.883702
v -0.883702 0.250946 0.883702
v 0.883702 0.250946 0.883702
v -0.797308 0.250946 1.092276
v 0.797308 0.250946 1.092276
v 0.883702 0.239417 -0.883702
v -0.883702 0.239417 -0.883702
v 0.801872 0.239417 -1.081259
v -0.801872 0.239417 -1.081259
v -2.195097 0.406613 2.457176
v 2.195097 0.406613 2.457176
v -3.000000 0.668691 3.000000
v 3.000000 0.668691 3.000000
v -2.457176 0.418677 -2.178107
v -2.457176 0.418677 2.178107
v -3.000000 0.697745 -3.000000
v -3.000000 0.697745 3.000000
v 2.182941 0.426927 -2.457176
v -2.182941 0.426927 -2.457176
v 3.000000 0.701162 -3.000000
v -3.000000 0.701162 -3.000000
v -2.457176 0.710304 2.457176
v 2.457176 0.710304 2.457176
v -3.000000 0.710304 3.000000
v 3.000000 0.710304 3.000000
v 2.457176 0.407528 2.140417
v 2.457176 0.407528 -2.140417
v 3.000000 0.724287 3.000000
v 3.000000 0.724287 -3.000000
v 2.457176 0.694317 2.457176
v 2.457176 0.694317 -2.457176
v 3.000000 0.694317 3.000000
v 3.000000 0.694317 -3.000000
v 2.195097 0.262078 2.457176
v 2.182941 0.274235 -2.457176
v 2.457176 0.724287 2.457176
v 2.457176 0.724287 -2.457176
v 2.457176 0.000000 -2.457176
v -2.457176 0.279069 -2.178107
v 2.457176 0.701162 -2.457176
v -2.457176 0.701162 -2.457176
v -2.457176 0.000000 -2.457176
v -2.195097 0.262078 2.457176
v -2.457176 0.697745 -2.457176
v -2.457176 0.697745 2.457176
v -2.457176 0.000000 2.457176
v 2.457176 0.000000 2.457176
v -2.457176 0.668691 2.457176
v 2.457176 0.668691 2.457176
v 2.457176 0.207888 2.249287
v 2.457176 0.207888 -2.249287
v 2.457176 0.516399 2.249287
v 2.457176 0.516399 -2.249287
v -2.307627 0.149548 2.457176
v 2.307627 0.149548 2.457176
v -2.307627 0.519143 2.457176
v 2.307627 0.519143 2.457176
v 2.256385 0.200790 -2.457176
v -2.256385 0.200790 -2.457176
v 2.256385 0.500371 -2.457176
v -2.256385 0.500371 -2.457176
v -2.457176 0.177984 -2.279192
v -2.457176 0.177984 2.279192
v -2.457176 0.519762 -2.279192
v -2.457176 0.519762 2.279192
v -0.036870 0.097520 0.036870
v -0.168822 0.002591 0.168822
v 0.147372 0.045491 0.147372
v 0.036870 0.097520 0.036870
v 0.036870 0.097520 -0.036870
v 0.168822 0.002591 -0.168822
v -0.147372 0.045491 -0.147372
v -0.036870 0.097520 -0.036870
v -0.147372 0.045491 0.147372
v 0.168822 0.002591 0.168822
v 0.095343 0.054620 0.095343
v -0.095343 0.054620 0.095343
v 0.147372 0.045491 -0.147372
v -0.168822 0.002591 -0.168822
v -0.095343 0.054620 -0.095343
v 0.095343 0.054620 -0.095343
v 0.073893 0.097520 0.073893
v -0.073893 0.097520 0.073893
v -0.073893 0.097520 -0.073893
v 0.073893 0.097520 -0.073893
vt 0.000000 0.000000
vt 0.000000 0.000000
vt 0.000000 0.000000
vt 0.090471 0.090471
vt 0.000000 0.000000
vt 0.000000 0.000000
vt 0.090471 0.090471
vt 0.000000 0.000000
vt 0.000000 0.000000
vt 0.000000 0.000000
vt 1.000000 1.000000
vt 0.909529 0.909529
vt 0.909529 0.909529
vt 0.182937 0.817063
vt 0.182937 0.182937
vt 0.909529 0.090471
vt 0.817063 0.182937
vt 0.817063 0.817063
vt 0.090471 0.909529
vt 0.262264 0.737736
vt 0.262264 0.262264
vt 0.737736 0.262264
vt 0.737736 0.737736
vt 0.352716 0.647284
vt 0.352716 0.352716
vt 0.647284 0.352716
vt 0.647284 0.647284
vt 0.367115 0.317954
vt 0.647284 0.352716
vt 0.352716 0.352716
vt 0.352716 0.352716
vt 0.647284 0.352716
vt 0.647284 0.647284
vt 0.352716 0.647284
vt 0.438391 0.438391
vt 0.561609 0.561609
vt 0.471863 0.528137
vt 0.471863 0.471863
vt 0.528137 0.471863
vt 0.528137 0.528137
vt 0.346187 0.297026
vt 0.653813 0.297026
vt 0.000000 0.000000
vt 0.000000 0.000000
vt 0.000000 0.000000
vt 0.632885 0.317954
vt 0.341754 0.704810
vt 0.633645 0.680210
vt 0.647284 0.647284
vt 0.366355 0.680210
vt 0.658246 0.704810
vt 0.367115 0.317954
vt 0.632885 0.317954
vt 0.366355 0.680210
vt 0.633645 0.680210
vt 0.352716 0.647284
vt 0.000000 0.000000
vt 0.000000 0.000000
vt 0.000000 0.000000
vt 0.000000 0.000000
vt 0.090471 0.090471
vt 1.000000 0.000000
vt 1.000000 0.000000
vt 0.090471 0.909529
vt 0.090471 0.090471
vt 0.000000 0.000000
vt 0.000000 0.000000
vt 0.471863 0.528137
vt 0.000000 1.000000
vt 0.000000 1.000000
vt 0.090471 0.909529
vt 0.000000 0.000000
vt 1.000000 0.000000
vt 0.909529 0.090471
vt 0.909529 0.090471
vt 0.000000 0.000000
vt 0.000000 0.000000
vt 0.909529 0.090471
vt 0.909529 0.909529
vt 0.909529 0.909529
vt 1.000000 1.000000
vt 0.909529 0.090471
vt 1.000000 1.000000
vt 0.000000 0.000000
vt 0.000000 0.000000
vt 1.000000 0.000000
vt 0.909529 0.874881
vt 0.909529 0.125119
vt 0.909529 0.125119
vt 0.909529 0.874881
vt 0.123936 0.909529
vt 0.876064 0.909529
vt 0.876064 0.909529
vt 0.123936 0.909529
vt 0.090471 0.120135
vt 0.090471 0.879865
vt 0.090471 0.879865
vt 0.090471 0.120135
vt 0.884605 0.090471
vt 0.115395 0.090471
vt 0.115395 0.090471
vt 0.884605 0.090471
vt 0.909529 0.856736
vt 0.909529 0.143264
vt 0.909529 0.143264
vt 0.909529 0.856736
vt 0.865850 0.090471
vt 0.134150 0.090471
vt 0.134150 0.090471
vt 0.865850 0.090471
vt 0.136177 0.909529
vt 0.863823 0.909529
vt 0.863824 0.909529
vt 0.136177 0.909529
vt 0.090471 0.136982
vt 0.090471 0.863018
vt 0.090471 0.863018
vt 0.090471 0.136982
vt 0.528137 0.471863
vt 0.000000 0.000000
vt 0.000000 0.000000
vt 0.000000 0.000000
vt 0.000000 0.000000
vt 0.000000 0.000000
vt 0.000000 0.000000
vt 0.477225 0.475438
vt 0.482322 0.515890
vt 0.477226 0.524562
vt 0.522775 0.524562
vt 0.517678 0.484110
vt 0.522775 0.475438
vt 0.000000 0.000000
vt 0.000000 0.000000
vt 0.000000 0.000000
vt 0.000000 0.000000
vt 0.000000 0.000000
vt 0.000000 0.000000
vt 0.000000 0.000000
vt 0.000000 0.000000
vt 0.000000 0.000000
vt 0.471863 0.471863
vt 0.482322 0.484110
vt 0.487685 0.512316
vt 0.528137 0.528137
vt 0.517678 0.515890
vt 0.512316 0.487684
vt 0.493855 0.493855
vt 0.506145 0.493855
vt 0.506145 0.506145
vt 0.493855 0.506145
vt 0.487684 0.487685
vt 0.512316 0.512316
vt 1.000000 1.000000
vt 0.438391 0.561610
vt 0.561609 0.438391
vt 0.000000 0.000000
vt 0.000000 0.000000
vt 0.000000 1.000000
vt 0.000000 0.000000
vt 0.000000 0.000000
vt 1.000000 0.000000
vt 0.000000 0.000000
vt 0.000000 0.000000
vt 0.000000 0.000000
vn 0.0000 0.0000 -1.0000
vn 0.7071 0.0000 0.7071
vn -0.7071 0.0000 -0.7071
vn 1.0000 0.0000 0.0000
vn 0.0000 1.0000 0.0000
vn 0.0000 0.0000 1.0000
vn 0.9239 0.0000 -0.3827
vn -0.9239 0.0000 0.3827
vn 0.9239 0.0000 0.3827
vn -0.9239 0.0000 -0.3827
vn 0.7071 0.0000 -0.7071
vn -1.0000 0.0000 0.0000
vn -0.7071 0.0000 0.7071
vn 0.0000 0.9850 0.1728
vn 0.0000 0.9850 -0.1728
vn -0.1728 0.9850 0.0000
vn 0.1728 0.9850 0.0000
vn 0.0000 0.4472 0.8944
vn 0.0000 0.4472 -0.8944
vn -0.8944 0.4472 0.0000
vn 0.8944 0.4472 0.0000
s off
f 30/1/1 110/2/1 32/3/1
f 85/4/2 56/5/2 1/6/2
f 1/6/3 87/7/3 85/4/3
f 4/8/4 67/9/4 2/10/4
f 4/11/2 79/12/2 77/13/2
f 13/14/5 85/4/5 14/15/5
f 14/15/5 86/16/5 15/17/5
f 15/17/5 77/13/5 16/18/5
f 16/18/5 81/19/5 13/14/5
f 38/20/5 14/15/5 33/21/5
f 33/21/5 15/17/5 34/22/5
f 34/22/5 16/18/5 37/23/5
f 37/23/5 13/14/5 38/20/5
f 40/24/5 33/21/5 35/25/5
f 36/26/5 37/23/5 39/27/5
f 43/28/5 42/29/5 41/30/5
f 26/31/6 40/24/6 35/25/6
f 27/32/6 35/25/6 36/26/6
f 28/33/6 36/26/6 39/27/6
f 25/34/6 39/27/6 40/24/6
f 6/35/5 25/34/5 26/31/5
f 8/36/5 27/32/5 28/33/5
f 30/37/5 6/35/5 31/38/5
f 29/39/5 8/36/5 32/40/5
f 18/41/5 34/22/5 19/42/5
f 23/43/6 43/44/6 22/45/6
f 18/41/5 35/25/5 33/21/5
f 19/42/5 36/26/5 23/46/5
f 17/47/5 37/23/5 38/20/5
f 24/48/7 45/49/7 39/27/7
f 17/47/5 40/24/5 21/50/5
f 20/51/5 39/27/5 37/23/5
f 22/52/8 41/30/8 35/25/8
f 35/25/1 42/29/1 36/26/1
f 36/26/9 44/53/9 23/46/9
f 48/54/5 45/49/5 47/55/5
f 39/27/6 46/56/6 40/24/6
f 40/24/10 48/54/10 21/50/10
f 21/57/1 47/58/1 24/59/1
f 51/60/3 61/61/3 87/7/3
f 2/10/6 51/60/6 1/6/6
f 86/16/11 52/62/11 2/63/11
f 83/64/5 56/5/5 84/65/5
f 1/6/12 55/66/12 3/67/12
f 31/38/12 118/68/12 30/37/12
f 3/69/11 83/64/11 81/19/11
f 79/12/5 60/70/5 80/71/5
f 81/19/13 60/70/13 3/69/13
f 3/67/1 59/72/1 4/8/1
f 61/61/5 64/73/5 62/74/5
f 87/7/1 62/74/1 88/75/1
f 88/75/11 64/73/11 52/62/11
f 52/76/6 63/77/6 51/60/6
f 75/78/4 70/79/4 76/80/4
f 77/13/3 68/81/3 4/11/3
f 2/63/13 75/78/13 86/16/13
f 69/82/5 72/83/5 70/79/5
f 76/80/2 72/83/2 68/81/2
f 68/84/12 71/85/12 67/9/12
f 67/86/11 69/82/11 75/78/11
f 90/87/12 86/16/12 89/88/12
f 91/89/12 76/80/12 92/90/12
f 91/89/12 86/16/12 75/78/12
f 90/87/12 76/80/12 77/13/12
f 98/91/6 77/13/6 97/92/6
f 99/93/6 80/71/6 100/94/6
f 97/92/6 79/12/6 99/93/6
f 98/91/6 80/71/6 81/19/6
f 102/95/4 81/19/4 101/96/4
f 103/97/4 84/65/4 104/98/4
f 104/98/4 85/4/4 102/95/4
f 101/96/4 83/64/4 103/97/4
f 94/99/1 85/4/1 93/100/1
f 95/101/1 88/75/1 96/102/1
f 93/100/1 87/7/1 95/101/1
f 96/102/1 86/16/1 94/99/1
f 12/103/12 89/88/12 11/104/12
f 65/105/12 92/90/12 66/106/12
f 11/104/12 91/89/12 65/105/12
f 66/106/12 90/87/12 12/103/12
f 73/107/1 93/100/1 82/108/1
f 49/109/1 96/102/1 50/110/1
f 82/108/1 95/101/1 49/109/1
f 50/110/1 94/99/1 73/107/1
f 9/111/6 97/92/6 74/112/6
f 57/113/6 100/94/6 58/114/6
f 74/112/6 99/93/6 57/113/6
f 58/114/6 98/91/6 9/111/6
f 10/115/4 101/96/4 78/116/4
f 53/117/4 104/98/4 54/118/4
f 54/118/4 102/95/4 10/115/4
f 78/116/4 103/97/4 53/117/4
f 32/40/4 114/119/4 29/39/4
f 107/120/14 116/121/14 113/122/14
f 111/123/15 120/124/15 117/125/15
f 113/126/16 119/127/16 111/128/16
f 117/129/17 115/130/17 107/131/17
f 29/132/6 106/133/6 31/134/6
f 113/122/18 114/135/18 107/120/18
f 115/136/18 122/137/18 116/121/18
f 117/125/19 118/138/19 111/123/19
f 119/139/19 124/140/19 120/124/19
f 111/128/20 106/141/20 113/126/20
f 116/142/20 123/143/20 119/127/20
f 107/131/21 110/144/21 117/129/21
f 120/145/21 121/146/21 115/130/21
f 105/147/5 121/146/5 108/148/5
f 109/149/5 123/143/5 112/150/5
f 112/150/5 122/151/5 105/147/5
f 108/148/5 124/152/5 109/149/5
f 30/1/1 118/138/1 110/2/1
f 85/4/2 84/65/2 56/5/2
f 1/6/3 51/60/3 87/7/3
f 4/8/4 68/84/4 67/9/4
f 4/11/2 59/153/2 79/12/2
f 13/14/5 81/19/5 85/4/5
f 14/15/5 85/4/5 86/16/5
f 15/17/5 86/16/5 77/13/5
f 16/18/5 77/13/5 81/19/5
f 38/20/5 13/14/5 14/15/5
f 33/21/5 14/15/5 15/17/5
f 34/22/5 15/17/5 16/18/5
f 37/23/5 16/18/5 13/14/5
f 40/24/5 38/20/5 33/21/5
f 36/26/5 34/22/5 37/23/5
f 43/28/5 44/53/5 42/29/5
f 26/31/6 25/34/6 40/24/6
f 27/32/6 26/31/6 35/25/6
f 28/33/6 27/32/6 36/26/6
f 25/34/6 28/33/6 39/27/6
f 6/35/5 5/154/5 25/34/5
f 8/36/5 7/155/5 27/32/5
f 30/37/5 5/154/5 6/35/5
f 29/39/5 7/155/5 8/36/5
f 18/41/5 33/21/5 34/22/5
f 23/43/6 44/156/6 43/44/6
f 18/41/5 22/52/5 35/25/5
f 19/42/5 34/22/5 36/26/5
f 17/47/5 20/51/5 37/23/5
f 24/48/7 47/55/7 45/49/7
f 17/47/5 38/20/5 40/24/5
f 20/51/5 24/48/5 39/27/5
f 22/52/8 43/28/8 41/30/8
f 35/25/1 41/30/1 42/29/1
f 36/26/9 42/29/9 44/53/9
f 48/54/5 46/56/5 45/49/5
f 39/27/6 45/49/6 46/56/6
f 40/24/10 46/56/10 48/54/10
f 21/57/1 48/157/1 47/58/1
f 51/60/3 63/77/3 61/61/3
f 2/10/6 52/76/6 51/60/6
f 86/16/11 88/75/11 52/62/11
f 83/64/5 55/158/5 56/5/5
f 1/6/12 56/5/12 55/66/12
f 31/38/12 106/141/12 118/68/12
f 3/69/11 55/158/11 83/64/11
f 79/12/5 59/153/5 60/70/5
f 81/19/13 80/71/13 60/70/13
f 3/67/1 60/159/1 59/72/1
f 61/61/5 63/77/5 64/73/5
f 87/7/1 61/61/1 62/74/1
f 88/75/11 62/74/11 64/73/11
f 52/76/6 64/160/6 63/77/6
f 75/78/4 69/82/4 70/79/4
f 77/13/3 76/80/3 68/81/3
f 2/63/13 67/86/13 75/78/13
f 69/82/5 71/161/5 72/83/5
f 76/80/2 70/79/2 72/83/2
f 68/84/12 72/162/12 71/85/12
f 67/86/11 71/161/11 69/82/11
f 90/87/12 77/13/12 86/16/12
f 91/89/12 75/78/12 76/80/12
f 91/89/12 89/88/12 86/16/12
f 90/87/12 92/90/12 76/80/12
f 98/91/6 81/19/6 77/13/6
f 99/93/6 79/12/6 80/71/6
f 97/92/6 77/13/6 79/12/6
f 98/91/6 100/94/6 80/71/6
f 102/95/4 85/4/4 81/19/4
f 103/97/4 83/64/4 84/65/4
f 104/98/4 84/65/4 85/4/4
f 101/96/4 81/19/4 83/64/4
f 94/99/1 86/16/1 85/4/1
f 95/101/1 87/7/1 88/75/1
f 93/100/1 85/4/1 87/7/1
f 96/102/1 88/75/1 86/16/1
f 12/103/12 90/87/12 89/88/12
f 65/105/12 91/89/12 92/90/12
f 11/104/12 89/88/12 91/89/12
f 66/106/12 92/90/12 90/87/12
f 73/107/1 94/99/1 93/100/1
f 49/109/1 95/101/1 96/102/1
f 82/108/1 93/100/1 95/101/1
f 50/110/1 96/102/1 94/99/1
f 9/111/6 98/91/6 97/92/6
f 57/113/6 99/93/6 100/94/6
f 74/112/6 97/92/6 99/93/6
f 58/114/6 100/94/6 98/91/6
f 10/115/4 102/95/4 101/96/4
f 53/117/4 103/97/4 104/98/4
f 54/118/4 104/98/4 102/95/4
f 78/116/4 101/96/4 103/97/4
f 32/40/4 110/144/4 114/119/4
f 107/120/14 115/136/14 116/121/14
f 111/123/15 119/139/15 120/124/15
f 113/126/16 116/142/16 119/127/16
f 117/129/17 120/145/17 115/130/17
f 29/132/6 114/135/6 106/133/6
f 113/122/18 106/133/18 114/135/18
f 115/136/18 121/163/18 122/137/18
f 117/125/19 110/2/19 118/138/19
f 119/139/19 123/164/19 124/140/19
f 111/128/20 118/68/20 106/141/20
f 116/142/20 122/151/20 123/143/20
f 107/131/21 114/119/21 110/144/21
f 120/145/21 124/152/21 121/146/21
f 105/147/5 122/151/5 121/146/5
f 109/149/5 124/152/5 123/143/5
f 112/150/5 123/143/5 122/151/5
f 108/148/5 121/146/5 124/152/5
o Cube
v -3.005566 0.675355 3.000000
v -3.005566 -0.009970 3.000000
v -3.005566 0.675355 -3.000000
v -3.005566 -0.009970 -3.000000
v -3.063192 0.675355 3.000000
v -3.063192 -0.009970 3.000000
v -3.063192 0.675355 -3.000000
v -3.063192 -0.009970 -3.000000
vt 0.625000 0.000000
vt 0.375000 0.250000
vt 0.375000 0.000000
vt 0.625000 0.250000
vt 0.375000 0.500000
vt 0.625000 0.500000
vt 0.375000 0.750000
vt 0.625000 0.750000
vt 0.375000 1.000000
vt 0.125000 0.750000
vt 0.125000 0.500000
vt 0.875000 0.500000
vt 0.625000 1.000000
vt 0.875000 0.750000
vn 1.0000 0.0000 0.0000
vn 0.0000 0.0000 -1.0000
vn -1.0000 0.0000 0.0000
vn 0.0000 0.0000 1.0000
vn 0.0000 1.0000 0.0000
vn 0.0000 -1.0000 0.0000
s off
f 126/165/22 127/166/22 125/167/22
f 128/168/23 131/169/23 127/166/23
f 132/170/24 129/171/24 131/169/24
f 130/172/25 125/173/25 129/171/25
f 131/169/26 125/174/26 127/175/26
f 128/176/27 130/172/27 132/170/27
f 126/165/22 128/168/22 127/166/22
f 128/168/23 132/170/23 131/169/23
f 132/170/24 130/172/24 129/171/24
f 130/172/25 126/177/25 125/173/25
f 131/169/26 129/171/26 125/174/26
f 128/176/27 126/178/27 130/172/27
o Cube.001
v 3.046461 0.675355 3.000000
v 3.046461 -0.009970 3.000000
v 3.046461 0.675355 -3.000000
v 3.046461 -0.009970 -3.000000
v 2.988834 0.675355 3.000000
v 2.988834 -0.009970 3.000000
v 2.988834 0.675355 -3.000000
v 2.988834 -0.009970 -3.000000
vt 0.625000 0.000000
vt 0.375000 0.250000
vt 0.375000 0.000000
vt 0.625000 0.250000
vt 0.375000 0.500000
vt 0.625000 0.500000
vt 0.375000 0.750000
vt 0.625000 0.750000
vt 0.375000 1.000000
vt 0.125000 0.750000
vt 0.125000 0.500000
vt 0.875000 0.500000
vt 0.625000 1.000000
vt 0.875000 0.750000
vn 1.0000 0.0000 0.0000
vn 0.0000 0.0000 -1.0000
vn -1.0000 0.0000 0.0000
vn 0.0000 0.0000 1.0000
vn 0.0000 1.0000 0.0000
vn 0.0000 -1.0000 0.0000
s off
f 134/179/28 135/180/28 133/181/28
f 136/182/29 139/183/29 135/180/29
f 140/184/30 137/185/30 139/183/30
f 138/186/31 133/187/31 137/185/31
f 139/183/32 133/188/32 135/189/32
f 136/190/33 138/186/33 140/184/33
f 134/179/28 136/182/28 135/180/28
f 136/182/29 140/184/29 139/183/29
f 140/184/30 138/186/30 137/185/30
f 138/186/31 134/191/31 133/187/31
f 139/183/32 137/185/32 133/188/32
f 136/190/33 134/192/33 138/186/33
o Cube.003_Cube.004
v 3.037278 0.675355 2.978215
v 3.037278 -0.009970 2.978215
v -3.038390 0.675355 2.982512
v -3.038390 -0.009970 2.982512
v 3.037319 0.675355 3.035842
v 3.037319 -0.009970 3.035842
v -3.038350 0.675355 3.040138
v -3.038350 -0.009970 3.040138
vt 0.625000 0.000000
vt 0.375000 0.250000
vt 0.375000 0.000000
vt 0.625000 0.250000
vt 0.375000 0.500000
vt 0.625000 0.500000
vt 0.375000 0.750000
vt 0.625000 0.750000
vt 0.375000 1.000000
vt 0.125000 0.750000
vt 0.125000 0.500000
vt 0.875000 0.500000
vt 0.625000 1.000000
vt 0.875000 0.750000
vn -0.0007 0.0000 -1.0000
vn -1.0000 0.0000 0.0007
vn 0.0007 0.0000 1.0000
vn 1.0000 0.0000 -0.0007
vn 0.0000 1.0000 0.0000
vn 0.0000 -1.0000 0.0000
s off
f 142/193/34 143/194/34 141/195/34
f 144/196/35 147/197/35 143/194/35
f 148/198/36 145/199/36 147/197/36
f 146/200/37 141/201/37 145/199/37
f 147/197/38 141/202/38 143/203/38
f 144/204/39 146/200/39 148/198/39
f 142/193/34 144/196/34 143/194/34
f 144/196/35 148/198/35 147/197/35
f 148/198/36 146/200/36 145/199/36
f 146/200/37 142/205/37 141/201/37
f 147/197/38 145/199/38 141/202/38
f 144/204/39 142/206/39 146/200/39
o Cube.002_Cube.005
v 3.037278 0.675355 -2.986270
v 3.037278 -0.009970 -2.986270
v -3.038390 0.675355 -2.981973
v -3.038390 -0.009970 -2.981973
v 3.037319 0.675355 -2.928643
v 3.037319 -0.009970 -2.928643
v -3.038350 0.675355 -2.924346
v -3.038350 -0.009970 -2.924346
vt 0.625000 0.000000
vt 0.375000 0.250000
vt 0.375000 0.000000
vt 0.625000 0.250000
vt 0.375000 0.500000
vt 0.625000 0.500000
vt 0.375000 0.750000
vt 0.625000 0.750000
vt 0.375000 1.000000
vt 0.125000 0.750000
vt 0.125000 0.500000
vt 0.875000 0.500000
vt 0.625000 1.000000
vt 0.875000 0.750000
vn -0.0007 0.0000 -1.0000
vn -1.0000 0.0000 0.0007
vn 0.0007 0.0000 1.0000
vn 1.0000 0.0000 -0.0007
vn 0.0000 1.0000 0.0000
vn 0.0000 -1.0000 0.0000
s off
f 150/207/40 151/208/40 149/209/40
f 152/210/41 155/211/41 151/208/41
f 156/212/42 153/213/42 155/211/42
f 154/214/43 149/215/43 153/213/43
f 155/211/44 149/216/44 151/217/44
f 152/218/45 154/214/45 156/212/45
f 150/207/40 152/210/40 151/208/40
f 152/210/41 156/212/41 155/211/41
f 156/212/42 154/214/42 153/213/42
f 154/214/43 150/219/43 149/215/43
f 155/211/44 153/213/44 149/216/44
f 152/218/45 150/220/45 154/214/45
